<svg xmlns="http://www.w3.org/2000/svg" width="200" height="140" viewBox="0 0 200 140"><g transform="translate(-940 -482)"><path d="M0,0H200V140H0Z" transform="translate(940 482)" fill="none"/><g transform="translate(979.179 482.001)"><path d="M367.84,70.865l4.131-1.345,4.243,13.035L372.083,83.9Zm0,0" transform="translate(-267.955 -50.643)" fill="#efe4ce"/><path d="M344.391,126.872l4.132-1.345,4.244,13.033-4.132,1.346Zm0,0" transform="translate(-250.873 -91.441)" fill="#efe4ce"/><path d="M57.108,41.767a11.837,11.837,0,0,0,2.668,9.241l3.137,3.934v36.3h4.345V58.368L70.4,60.46a2.174,2.174,0,0,0,2.412,0l5.311-3.545,5.311,3.541a2.174,2.174,0,0,0,2.412,0l5.311-3.541,5.311,3.541a2.174,2.174,0,0,0,2.412,0l5.311-3.541,5.311,3.541a2.174,2.174,0,0,0,2.412,0l5.311-3.541,4.345,2.9V126H73.774v4.345H134.6a10.875,10.875,0,0,0,10.862-10.862V54.308A2.154,2.154,0,0,0,145,52.994l12.554-33.421A14.631,14.631,0,0,0,155.894,6.1,13.88,13.88,0,0,0,144.357,0a14.223,14.223,0,0,0-13.2,9.257l-3.406,9.067-4.017-4.017V6.516a2.172,2.172,0,0,0-2.172-2.172H97.67A2.172,2.172,0,0,0,95.5,6.516v3.727a6.785,6.785,0,0,0-8.762-.3V6.516a6.439,6.439,0,0,0-12.877,0V9.949a6.649,6.649,0,0,0-8.992.485,6.883,6.883,0,0,0-.037,9.548l2.023,2.087a6.653,6.653,0,0,0-1.972,1.383l-.014.008-.021.022a6.69,6.69,0,0,0-1.239,1.772l-2.476-4.573L57.309,22.75l5.618,10.369c-.251.143-.5.282-.743.446-.089.06-.168.13-.255.191l-8.406-7.746L50.578,29.2l8.35,7.7a11.853,11.853,0,0,0-1.82,4.864ZM102.981,52.5,97.67,56.046,92.359,52.5a2.174,2.174,0,0,0-2.412,0l-5.261,3.509c-.013-.217-.05-.406-.05-.615a9.749,9.749,0,0,1,18.977-3.174,2.195,2.195,0,0,0-.632.276Zm5.551,2.094-.041-.028A14.1,14.1,0,0,0,88.981,42.36V28.24h19.551Zm32.585,64.884A6.517,6.517,0,0,1,134.6,126h-8.689V59.815l4.345-2.9,5.311,3.541a2.174,2.174,0,0,0,2.412,0l3.139-2.088Zm-5.889-108.7a9.86,9.86,0,0,1,9.129-6.439,9.591,9.591,0,0,1,7.966,4.223,10.292,10.292,0,0,1,1.159,9.479L140.031,53.873l-3.259,2.172L131.461,52.5a2.174,2.174,0,0,0-2.412,0l-5.311,3.541-4.407-2.938Zm-9.15,12.007L114.549,53.479l-1.673,1.116V26.967l8.689-8.689ZM99.842,8.688h19.551v4.345H99.842ZM98.57,17.378h17.752L109.8,23.895H92.052Zm-30.6-3.9a2.312,2.312,0,0,1,3.323,0l3.19,3.259A2.172,2.172,0,0,0,78.2,15.206V6.516a2.1,2.1,0,1,1,4.188,0v8.689a2.174,2.174,0,0,0,3.722,1.521l3.2-3.259a2.352,2.352,0,0,1,3.3,0,2.486,2.486,0,0,1,0,3.475l-6.4,6.517.065.066-1.008,1.008a2.157,2.157,0,0,0-.419.619c-.031.067-.048.135-.072.2a2.173,2.173,0,0,0-.117.574c0,.048-.027.087-.027.135V45.227a13.915,13.915,0,0,0-1.373,1.521l-4.1-8.733a11.728,11.728,0,0,0-7.516-6.082,11.452,11.452,0,0,0-2.322-.352l-.557-.652c-.434-.5-.762-.886-.815-.94a2.515,2.515,0,0,1-.651-2.209,2.41,2.41,0,0,1,.6-1.212l.039-.037L68,26.471a2.329,2.329,0,0,1,2.922-.274,2.172,2.172,0,0,0,2.776-3.308l-5.742-5.926a2.509,2.509,0,0,1,.016-3.482ZM61.414,42.36a7.475,7.475,0,0,1,3.207-5.186,7.327,7.327,0,0,1,10.644,2.759L80.8,51.727a13.912,13.912,0,0,0-.324,1.544l-1.145-.765a2.173,2.173,0,0,0-2.411,0L71.6,56.046l-4.818-3.215-.466-.583,5.6-4.33L69.26,44.481l-5.647,4.368-.483-.6a7.524,7.524,0,0,1-1.716-5.887Zm0,0" transform="translate(-36.844 0)" fill="#efe4ce"/><path d="M4.639,358.029a9.748,9.748,0,0,0,8.767,5.418,9.869,9.869,0,0,0,4.384-1.034l1.762-.881,1.764.881a9.86,9.86,0,0,0,4.382,1.034,9.75,9.75,0,0,0,8.768-5.418l.757-1.52A36.958,36.958,0,0,0,39.1,340.08a11.345,11.345,0,0,0-17.379-9.653V328.69A8.69,8.69,0,0,0,13.034,320v4.345a4.345,4.345,0,0,1,4.345,4.345v1.737A11.345,11.345,0,0,0,0,340.08a36.947,36.947,0,0,0,3.88,16.434Zm6.752-24.995a7,7,0,0,1,4.981,2.064l1.644,1.644a2.173,2.173,0,0,0,3.072,0l1.644-1.644a7.045,7.045,0,0,1,12.026,4.981,32.541,32.541,0,0,1-3.422,14.492l-.757,1.521A5.431,5.431,0,0,1,25.7,359.1a5.488,5.488,0,0,1-2.44-.576l-2.735-1.368a2.173,2.173,0,0,0-1.942,0l-2.733,1.368a5.494,5.494,0,0,1-2.442.576,5.431,5.431,0,0,1-4.881-3.018l-.757-1.52A32.542,32.542,0,0,1,4.345,340.08a7.055,7.055,0,0,1,7.045-7.045Zm0,0" transform="translate(0 -233.107)" fill="#efe4ce"/></g></g></svg>