<svg xmlns="http://www.w3.org/2000/svg" width="200" height="140" viewBox="0 0 200 140"><g transform="translate(-930 -466)"><path d="M0,0H200V140H0Z" transform="translate(930 466)" fill="none"/><path d="M154.638,191.645l-18.444-43.81a11.339,11.339,0,0,1,5.085-14.453l5.505-2.843a2.446,2.446,0,0,0,1.3-2.179V111.308a2.4,2.4,0,0,0-2.359-2.436h-9.435V104h-4.717v4.872H27.794V104H23.076v4.872H18.359A2.4,2.4,0,0,0,16,111.308V130.8a9.6,9.6,0,0,0,9.435,9.744H65.22l-.925,7.643a10.767,10.767,0,0,0,2.474,8.281,10.064,10.064,0,0,0,7.649,3.564h27.729l15.446,39.881a2.361,2.361,0,0,0,2.19,1.531h28.635a6.729,6.729,0,0,0,5.671-3.163,7.2,7.2,0,0,0,.548-6.632Zm-41.931-77.9v7.308h4.717v-7.308h4.717v7.308h4.717v-7.308h4.717v7.308h4.717v-7.308h7.076v12.18H20.717v-12.18ZM20.717,130.8h28.3v4.872H25.435A4.8,4.8,0,0,1,20.717,130.8Zm53.7,24.36a5.411,5.411,0,0,1-4.113-1.916,5.788,5.788,0,0,1-1.33-4.451l1-8.249H87.3c.094,0,.186.008.28.011-1.661,4.069-4.46,6.539-8.355,7.344l.926,4.778c5.623-1.162,9.828-5,12.046-10.923a10.967,10.967,0,0,1,5.117,5.792l2.948,7.614Zm75.727,40.449a2.026,2.026,0,0,1-1.726.963H121.381l-19.689-50.836A15.441,15.441,0,0,0,87.3,135.668H53.74V130.8h49.533v4.872h4.717V130.8h28.491a16.369,16.369,0,0,0-4.613,18.981l18.444,43.81a2.168,2.168,0,0,1-.167,2.018Z" transform="translate(944 383)" fill="#efe4ce"/></g></svg>