<svg xmlns="http://www.w3.org/2000/svg" width="200" height="140" viewBox="0 0 200 140"><g transform="translate(-940 -481)"><path d="M0,0H200V140H0Z" transform="translate(940 481)" fill="none"/><g transform="translate(956 461.667)"><path d="M112,41.509A19.433,19.433,0,0,0,131.409,22.1V17.784a2.157,2.157,0,0,0-2.157-2.157H116.312A19.433,19.433,0,0,0,96.9,35.039V37.2H94.743V9.157H90.43V28.568H88.273V26.411A19.433,19.433,0,0,0,68.862,7H55.921a2.157,2.157,0,0,0-2.157,2.157V13.47A19.433,19.433,0,0,0,73.175,32.882H90.43V56.607H55.921a2.157,2.157,0,0,0-2.157,2.157V71.7a2.157,2.157,0,0,0,2.157,2.157h4.566l2.049,16.351L54.4,82.075A12.911,12.911,0,0,0,35.58,99.743H14.941a12.941,12.941,0,0,0,0,25.882h30.2a12.941,12.941,0,0,0,9.16-3.781,12.553,12.553,0,0,0,1.471-1.794l1.678,1.676a12.9,12.9,0,0,0,9.151,3.783,12.483,12.483,0,0,0,1.326-.127,2.105,2.105,0,0,0,.938.244h49.607a2.157,2.157,0,0,0,2.157-1.978l4.141-49.786h4.486a2.157,2.157,0,0,0,2.157-2.157V58.764a2.157,2.157,0,0,0-2.157-2.157H94.743v-15.1Zm4.314-21.568H127.1V22.1A15.115,15.115,0,0,1,112,37.2h-6.212l9.622-6.874L112.9,26.815l-11.688,8.347v-.123A15.115,15.115,0,0,1,116.312,19.941ZM58.077,13.47V11.314H68.862a15.115,15.115,0,0,1,15.1,15.1v.123L72.271,18.187l-2.506,3.507,9.622,6.874H73.175a15.115,15.115,0,0,1-15.1-15.1ZM39.145,85.124a8.64,8.64,0,0,1,12.2,0L60.5,94.276l-12.2,12.2-9.149-9.149A8.64,8.64,0,0,1,39.145,85.124ZM6.314,112.684a8.593,8.593,0,0,1,8.627-8.627H27.882v17.255H14.941A8.627,8.627,0,0,1,6.314,112.684Zm44.942,6.1a8.653,8.653,0,0,1-6.119,2.526H32.2V104.057h7.581L52.623,116.9a8.472,8.472,0,0,1-1.367,1.883Zm9.24-.11-9.151-9.151,12.2-12.2,9.149,9.149a8.628,8.628,0,1,1-12.2,12.2Zm55.989,2.636h-40.4a12.941,12.941,0,0,0-.339-17.887L67.5,95.182l-2.67-21.32h55.6ZM127.1,69.548H58.077V60.921H127.1Z" transform="translate(17 23.333)" fill="#efe4ce"/></g></g></svg>