<svg xmlns="http://www.w3.org/2000/svg" width="58" height="58" viewBox="0 0 58 58">
  <g id="twitter_contato" transform="translate(-1010 -2837)">
    <g id="Path_28" data-name="Path 28" transform="translate(1010 2837)" fill="none">
      <path d="M0,0H58V58H0Z" stroke="none"/>
      <path d="M 3 3 L 3 55 L 55 55 L 55 3 L 3 3 M 0 0 L 58 0 L 58 58 L 0 58 L 0 0 Z" stroke="none" fill="#806a5e"/>
    </g>
    <path id="twitter" d="M33.872,6.358a14,14,0,0,1-3.434.981c.552-.093,1.368-1.094,1.695-1.5a6.318,6.318,0,0,0,1.143-2.082c.03-.059.053-.134-.006-.18a.2.2,0,0,0-.183.016,17.549,17.549,0,0,1-4.079,1.562.274.274,0,0,1-.282-.074,3.3,3.3,0,0,0-.356-.365A7.22,7.22,0,0,0,26.394,3.5a6.882,6.882,0,0,0-3.031-.489,7.253,7.253,0,0,0-2.876.813A7.418,7.418,0,0,0,18.169,5.72,7.122,7.122,0,0,0,16.783,8.5a7.552,7.552,0,0,0-.074,2.929c.023.164.009.186-.139.164C10.964,10.756,6.321,8.75,2.55,4.456c-.164-.187-.253-.187-.387.014-1.65,2.473-.85,6.446,1.211,8.4.275.26.557.521.862.758a7.136,7.136,0,0,1-2.705-.758c-.164-.1-.245-.044-.26.141a4.239,4.239,0,0,0,.045.8,7.19,7.19,0,0,0,4.431,5.731,4.187,4.187,0,0,0,.9.274,8.012,8.012,0,0,1-2.653.083c-.193-.038-.268.058-.193.244,1.167,3.182,3.687,4.129,5.574,4.668.253.045.506.045.759.1-.015.022-.03.022-.045.045-.627.954-2.8,1.665-3.807,2.019A13.648,13.648,0,0,1,.5,27.72c-.31-.046-.376-.042-.46,0s-.011.128.089.207c.393.26.795.491,1.2.714A19.072,19.072,0,0,0,5.2,30.187c6.946,1.918,14.769.509,19.986-4.673,4.094-4.069,5.529-9.68,5.529-15.3,0-.219.259-.34.414-.457a13.436,13.436,0,0,0,2.707-2.828A.823.823,0,0,0,34,6.387v-.03C34,6.268,34.01,6.295,33.872,6.358Z" transform="translate(1022 2849.497)" fill="#806a5e" fill-rule="evenodd"/>
  </g>
</svg>
