<svg xmlns="http://www.w3.org/2000/svg" xmlns:xlink="http://www.w3.org/1999/xlink" width="123" height="82" viewBox="0 0 123 82"><defs><clipPath id="a"><rect width="123" height="82" transform="translate(611 2036)" fill="#a9aeb3"/></clipPath></defs><g transform="translate(-611 -2036)" clip-path="url(#a)"><g transform="translate(616.727 2036)"><path d="M2.843,6.85,1.686,9.685,13.779,21.663l2.083.232L50.7,14.141l.058,2.488L21.939,27.565v2.025l13.309,6.365,1.91.116,18-19.443L55.1,5.924,47.92.253l3.935,6.6Z" transform="translate(-1.686 -0.253)" fill="#231f20"/><path d="M138.442,6.85,139.6,9.685,127.506,21.663l-2.083.232L90.587,14.141l-.058,2.488,28.817,10.937v2.025l-13.309,6.365-1.91.116-18-19.443.058-10.705L93.365.253,89.43,6.85Z" transform="translate(-28.15 -0.253)" fill="#231f20"/><path d="M65.72,40.453,52.758,55.672l.4.521L65.2,47.224l.463.463-6.25,16.955.347.231,6.77-9.721.058,30.669,4.456,8.738V47.687A7.527,7.527,0,0,1,65.72,40.453Z" transform="translate(-17.691 -12.851)" fill="#231f20"/><path d="M91.455,40.453l12.962,15.219-.405.521L91.976,47.224l-.463.463,6.25,16.955-.347.231-6.77-9.721L90.587,85.82l-4.456,8.738V47.687A7.527,7.527,0,0,0,91.455,40.453Z" transform="translate(-28.15 -12.851)" fill="#231f20"/></g></g></svg>