<svg xmlns="http://www.w3.org/2000/svg" xmlns:xlink="http://www.w3.org/1999/xlink" width="85" height="71" viewBox="0 0 85 71">
  <defs>
    <clipPath id="clip-path">
      <rect id="logo" width="85" height="71" transform="translate(291 15)" fill="#a9aeb3"/>
    </clipPath>
  </defs>
  <g id="Mask_Group_1" data-name="Mask Group 1" transform="translate(-291 -15)" clip-path="url(#clip-path)">
    <g id="Layer_2" transform="translate(291.232 19.189)">
      <path id="Path_9" data-name="Path 9" d="M1.585,5.1.708,7.249,9.867,16.32l1.578.175,26.38-5.872.044,1.884L16.045,20.79v1.534l10.079,4.82,1.446.088L41.2,12.507,41.155,4.4,35.721.106l2.98,5Z" transform="translate(-0.708 -0.106)" fill="#231f20"/>
      <path id="Path_10" data-name="Path 10" d="M75.8,5.1l.876,2.147L67.522,16.32l-1.578.175-26.38-5.872-.044,1.884L61.343,20.79v1.534l-10.079,4.82-1.446.088L36.19,12.507,36.233,4.4,41.667.106l-2.98,5Z" transform="translate(7.719 -0.106)" fill="#231f20"/>
      <path id="Path_11" data-name="Path 11" d="M31.983,17,22.167,28.522l.307.394,9.115-6.792.351.351-4.733,12.84.263.175L32.6,28.128l.044,23.225,3.374,6.617V22.475A5.7,5.7,0,0,1,31.983,17Z" transform="translate(4.388 3.905)" fill="#231f20"/>
      <path id="Path_12" data-name="Path 12" d="M40.221,17l9.816,11.525-.307.394-9.115-6.792-.35.351L45,35.314l-.263.175-5.127-7.362-.044,23.225L36.19,57.97V22.475A5.7,5.7,0,0,0,40.221,17Z" transform="translate(7.719 3.905)" fill="#231f20"/>
    </g>
  </g>
</svg>
